<svg width="512" height="512" xmlns="http://www.w3.org/2000/svg" enable-background="new 0 0 512 512" version="1.1" fill="#000000">

 <g>
  <title>Layer 1</title>
  <g id="svg_1">
   <g id="svg_2">
    <path id="svg_3" d="m439.5,236c0,-11.3 -9.1,-20.4 -20.4,-20.4s-20.4,9.1 -20.4,20.4c0,70 -64,126.9 -142.7,126.9c-78.7,0 -142.7,-56.9 -142.7,-126.9c0,-11.3 -9.1,-20.4 -20.4,-20.4s-20.4,9.1 -20.4,20.4c0,86.2 71.5,157.4 163.1,166.7l0,57.5l-23.6,0c-11.3,0 -20.4,9.1 -20.4,20.4c0,11.3 9.1,20.4 20.4,20.4l88,0c11.3,0 20.4,-9.1 20.4,-20.4c0,-11.3 -9.1,-20.4 -20.4,-20.4l-23.6,0l0,-57.5c91.6,-9.3 163.1,-80.5 163.1,-166.7z"/>
    <path id="svg_4" d="m256,323.5c51,0 92.3,-41.3 92.3,-92.3l0,-127.9c0,-51 -41.3,-92.3 -92.3,-92.3s-92.3,41.3 -92.3,92.3l0,127.9c0,51 41.3,92.3 92.3,92.3zm-52.3,-220.2c0,-28.8 23.5,-52.3 52.3,-52.3s52.3,23.5 52.3,52.3l0,127.9c0,28.8 -23.5,52.3 -52.3,52.3s-52.3,-23.5 -52.3,-52.3l0,-127.9z"/>
   </g>
  </g>
  <rect stroke="#000" id="svg_5" height="240" width="129" y="48" x="190" fill="#000000"/>
 </g>
</svg>